<?xml version="1.0" encoding="utf-8"?>
<!-- Generator: Adobe Illustrator 27.1.1, SVG Export Plug-In . SVG Version: 6.00 Build 0)  -->
<svg version="1.1" id="Layer_1" xmlns="http://www.w3.org/2000/svg" xmlns:xlink="http://www.w3.org/1999/xlink" x="0px" y="0px"
	 viewBox="0 0 20 20" style="enable-background:new 0 0 20 20;" xml:space="preserve">
<path d="M16.1,11.1c-0.1,0-0.2,0-0.3,0c-4.9,0-9.7,0-14.6,0c-0.7,0-1.1-0.3-1.2-0.9C-0.1,9.6,0.3,9,1,8.9c0.1,0,0.2,0,0.4,0
	c4.8,0,9.6,0,14.4,0c0.1,0,0.2,0,0.4,0C16.1,8.8,16,8.7,16,8.7c-1.9-1.9-3.7-3.7-5.6-5.6C10.1,2.8,9.9,2.4,10,1.9
	c0.2-0.8,1.1-1.1,1.8-0.6C11.9,1.4,12,1.5,12,1.6c2.5,2.5,5,5,7.5,7.5c0.6,0.6,0.6,1.2,0,1.8c-2.5,2.5-5,5-7.5,7.5
	c-0.3,0.3-0.6,0.5-1.1,0.4c-0.9-0.2-1.2-1.1-0.7-1.8c0.1-0.1,0.1-0.1,0.2-0.2c1.8-1.8,3.7-3.7,5.5-5.5C16,11.3,16.1,11.3,16.1,11.1
	C16.2,11.2,16.1,11.1,16.1,11.1z"/>
</svg>
