<?xml version="1.0" encoding="utf-8"?>
<!-- Generator: Adobe Illustrator 27.1.1, SVG Export Plug-In . SVG Version: 6.00 Build 0)  -->
<svg version="1.1" id="Layer_1" xmlns="http://www.w3.org/2000/svg" xmlns:xlink="http://www.w3.org/1999/xlink" x="0px" y="0px"
	 viewBox="0 0 20 20" style="enable-background:new 0 0 20 20;" xml:space="preserve">
<path d="M11.1,3.9c0,0.1,0,0.2,0,0.3c0,4.9,0,9.7,0,14.6c0,0.7-0.3,1.1-0.9,1.2c-0.6,0.1-1.3-0.3-1.3-1c0-0.1,0-0.2,0-0.4
	c0-4.8,0-9.6,0-14.4c0-0.1,0-0.2,0-0.4C8.8,3.9,8.7,4,8.7,4C6.8,5.9,4.9,7.7,3.1,9.6C2.8,9.9,2.4,10.1,1.9,10
	C1.2,9.7,0.9,8.8,1.4,8.2C1.4,8.1,1.5,8,1.6,8c2.5-2.5,5-5,7.5-7.5c0.6-0.6,1.2-0.6,1.8,0c2.5,2.5,5,5,7.5,7.5
	c0.3,0.3,0.5,0.6,0.4,1.1c-0.2,0.9-1.1,1.2-1.8,0.7c-0.1-0.1-0.1-0.1-0.2-0.2C15,7.7,13.2,5.9,11.4,4C11.3,4,11.3,3.9,11.1,3.9
	C11.2,3.8,11.1,3.9,11.1,3.9z"/>
</svg>
