<?xml version="1.0" encoding="utf-8"?>
<!-- Generator: Adobe Illustrator 27.1.1, SVG Export Plug-In . SVG Version: 6.00 Build 0)  -->
<svg version="1.1" id="Layer_1" xmlns="http://www.w3.org/2000/svg" xmlns:xlink="http://www.w3.org/1999/xlink" x="0px" y="0px"
	 viewBox="0 0 20 20" style="enable-background:new 0 0 20 20;" xml:space="preserve">
<path d="M10,20c5.5,0,10-4.5,10-10S15.5,0,10,0S0,4.5,0,10S4.5,20,10,20z M6.8,6.8c0.4-0.4,1-0.4,1.3,0L10,8.7l1.8-1.8
	c0.4-0.4,1-0.4,1.3,0c0.4,0.4,0.4,1,0,1.3L11.3,10l1.8,1.8c0.4,0.4,0.4,1,0,1.3c-0.4,0.4-1,0.4-1.3,0L10,11.3l-1.8,1.8
	c-0.4,0.4-1,0.4-1.3,0c-0.4-0.4-0.4-1,0-1.3L8.7,10L6.8,8.2C6.5,7.8,6.5,7.2,6.8,6.8z"/>
</svg>
